<mxfile host="app.diagrams.net" agent="Mozilla/5.0 (Windows NT 10.0; Win64; x64) AppleWebKit/537.36 (KHTML, like Gecko) Chrome/134.0.0.0 Safari/537.36" version="26.1.3">
  <diagram name="Página-1" id="Ou55HBkq7C98LPPG7FS0">
    <mxGraphModel dx="1500" dy="1972" grid="1" gridSize="10" guides="1" tooltips="1" connect="1" arrows="1" fold="1" page="1" pageScale="1" pageWidth="827" pageHeight="1169" math="0" shadow="0">
      <root>
        <mxCell id="0" />
        <mxCell id="1" parent="0" />
        <mxCell id="VruLI3Jw7RiZ8R_Fioo4-1" value="&lt;b&gt;&lt;font style=&quot;font-size: 18px;&quot;&gt;MODELAGEM DO DIAGRAMA DE CASO DE USO&lt;/font&gt;&lt;/b&gt;" style="text;html=1;align=center;verticalAlign=middle;whiteSpace=wrap;rounded=0;strokeWidth=0;strokeColor=none;" vertex="1" parent="1">
          <mxGeometry x="199" y="-20" width="430" height="30" as="geometry" />
        </mxCell>
        <mxCell id="VruLI3Jw7RiZ8R_Fioo4-2" value="&lt;span style=&quot;font-size: 14px;&quot;&gt;&lt;b&gt;Sistema de Gestão da Festa da Penha&lt;/b&gt;&lt;/span&gt;" style="text;html=1;align=center;verticalAlign=middle;resizable=0;points=[];autosize=1;strokeColor=none;fillColor=none;" vertex="1" parent="1">
          <mxGeometry x="449" y="40" width="280" height="30" as="geometry" />
        </mxCell>
        <mxCell id="VruLI3Jw7RiZ8R_Fioo4-6" value="" style="rounded=0;whiteSpace=wrap;html=1;fillColor=none;" vertex="1" parent="1">
          <mxGeometry x="429" y="40" width="320" height="680" as="geometry" />
        </mxCell>
        <mxCell id="VruLI3Jw7RiZ8R_Fioo4-7" value="" style="rounded=0;whiteSpace=wrap;html=1;" vertex="1" parent="1">
          <mxGeometry x="469" y="420" width="240" height="260" as="geometry" />
        </mxCell>
        <mxCell id="VruLI3Jw7RiZ8R_Fioo4-9" value="" style="rounded=0;whiteSpace=wrap;html=1;" vertex="1" parent="1">
          <mxGeometry x="469" y="440" width="240" height="240" as="geometry" />
        </mxCell>
        <mxCell id="VruLI3Jw7RiZ8R_Fioo4-10" value="" style="ellipse;whiteSpace=wrap;html=1;" vertex="1" parent="1">
          <mxGeometry x="506.5" y="460" width="165" height="60" as="geometry" />
        </mxCell>
        <mxCell id="VruLI3Jw7RiZ8R_Fioo4-12" value="" style="ellipse;whiteSpace=wrap;html=1;" vertex="1" parent="1">
          <mxGeometry x="506.5" y="535" width="165" height="60" as="geometry" />
        </mxCell>
        <mxCell id="VruLI3Jw7RiZ8R_Fioo4-13" value="" style="ellipse;whiteSpace=wrap;html=1;" vertex="1" parent="1">
          <mxGeometry x="506.5" y="610" width="165" height="60" as="geometry" />
        </mxCell>
        <mxCell id="VruLI3Jw7RiZ8R_Fioo4-14" value="" style="ellipse;whiteSpace=wrap;html=1;" vertex="1" parent="1">
          <mxGeometry x="506.5" y="450" width="165" height="60" as="geometry" />
        </mxCell>
        <mxCell id="VruLI3Jw7RiZ8R_Fioo4-15" value="" style="ellipse;whiteSpace=wrap;html=1;" vertex="1" parent="1">
          <mxGeometry x="506.5" y="530" width="165" height="60" as="geometry" />
        </mxCell>
        <mxCell id="VruLI3Jw7RiZ8R_Fioo4-16" value="" style="ellipse;whiteSpace=wrap;html=1;" vertex="1" parent="1">
          <mxGeometry x="506.5" y="610" width="165" height="60" as="geometry" />
        </mxCell>
        <mxCell id="VruLI3Jw7RiZ8R_Fioo4-18" value="GerenciarFesta" style="ellipse;whiteSpace=wrap;html=1;" vertex="1" parent="1">
          <mxGeometry x="215" y="210" width="165" height="60" as="geometry" />
        </mxCell>
        <mxCell id="VruLI3Jw7RiZ8R_Fioo4-27" value="" style="ellipse;whiteSpace=wrap;html=1;" vertex="1" parent="1">
          <mxGeometry x="506.5" y="450" width="165" height="60" as="geometry" />
        </mxCell>
        <mxCell id="VruLI3Jw7RiZ8R_Fioo4-28" value="" style="ellipse;whiteSpace=wrap;html=1;" vertex="1" parent="1">
          <mxGeometry x="506.5" y="530" width="165" height="60" as="geometry" />
        </mxCell>
        <mxCell id="VruLI3Jw7RiZ8R_Fioo4-29" value="" style="ellipse;whiteSpace=wrap;html=1;" vertex="1" parent="1">
          <mxGeometry x="506.5" y="610" width="165" height="60" as="geometry" />
        </mxCell>
        <mxCell id="VruLI3Jw7RiZ8R_Fioo4-30" value="" style="ellipse;whiteSpace=wrap;html=1;" vertex="1" parent="1">
          <mxGeometry x="215" y="520" width="165" height="60" as="geometry" />
        </mxCell>
        <mxCell id="VruLI3Jw7RiZ8R_Fioo4-53" style="edgeStyle=orthogonalEdgeStyle;rounded=0;orthogonalLoop=1;jettySize=auto;html=1;exitX=0.5;exitY=0.5;exitDx=0;exitDy=0;exitPerimeter=0;entryX=0;entryY=0.5;entryDx=0;entryDy=0;" edge="1" parent="1" source="VruLI3Jw7RiZ8R_Fioo4-35" target="VruLI3Jw7RiZ8R_Fioo4-18">
          <mxGeometry relative="1" as="geometry" />
        </mxCell>
        <mxCell id="VruLI3Jw7RiZ8R_Fioo4-35" value="&lt;font style=&quot;font-size: 14px;&quot;&gt;Religioso&lt;/font&gt;&lt;div&gt;&lt;br&gt;&lt;/div&gt;" style="shape=umlActor;verticalLabelPosition=bottom;verticalAlign=top;html=1;outlineConnect=0;" vertex="1" parent="1">
          <mxGeometry x="79" y="180" width="60" height="120" as="geometry" />
        </mxCell>
        <mxCell id="VruLI3Jw7RiZ8R_Fioo4-41" value="" style="rounded=0;whiteSpace=wrap;html=1;" vertex="1" parent="1">
          <mxGeometry x="469" y="400" width="240" height="280" as="geometry" />
        </mxCell>
        <mxCell id="VruLI3Jw7RiZ8R_Fioo4-42" value="&lt;font style=&quot;font-size: 11px;&quot;&gt;GerenciarRecursos/Fornecedores&lt;/font&gt;" style="ellipse;whiteSpace=wrap;html=1;" vertex="1" parent="1">
          <mxGeometry x="506.5" y="450" width="165" height="60" as="geometry" />
        </mxCell>
        <mxCell id="VruLI3Jw7RiZ8R_Fioo4-43" value="&lt;font style=&quot;font-size: 11px;&quot;&gt;OrganizarTransporte/Caravanas&lt;/font&gt;" style="ellipse;whiteSpace=wrap;html=1;" vertex="1" parent="1">
          <mxGeometry x="506.5" y="525" width="165" height="60" as="geometry" />
        </mxCell>
        <mxCell id="VruLI3Jw7RiZ8R_Fioo4-44" value="&lt;font style=&quot;font-size: 11px;&quot;&gt;AdministrarDoações/Patrocínios&lt;/font&gt;" style="ellipse;whiteSpace=wrap;html=1;" vertex="1" parent="1">
          <mxGeometry x="506.5" y="595" width="165" height="60" as="geometry" />
        </mxCell>
        <mxCell id="VruLI3Jw7RiZ8R_Fioo4-45" value="GerenciarLogística" style="ellipse;whiteSpace=wrap;html=1;" vertex="1" parent="1">
          <mxGeometry x="215" y="520" width="165" height="60" as="geometry" />
        </mxCell>
        <mxCell id="VruLI3Jw7RiZ8R_Fioo4-56" style="edgeStyle=orthogonalEdgeStyle;rounded=0;orthogonalLoop=1;jettySize=auto;html=1;exitX=0.5;exitY=0.5;exitDx=0;exitDy=0;exitPerimeter=0;entryX=0;entryY=0.5;entryDx=0;entryDy=0;" edge="1" parent="1" source="VruLI3Jw7RiZ8R_Fioo4-52" target="VruLI3Jw7RiZ8R_Fioo4-45">
          <mxGeometry relative="1" as="geometry" />
        </mxCell>
        <mxCell id="VruLI3Jw7RiZ8R_Fioo4-52" value="&lt;span style=&quot;font-size: 14px;&quot;&gt;Guardião&lt;/span&gt;&lt;div&gt;&lt;span style=&quot;font-size: 14px;&quot;&gt;&lt;br&gt;&lt;/span&gt;&lt;/div&gt;" style="shape=umlActor;verticalLabelPosition=bottom;verticalAlign=top;html=1;outlineConnect=0;" vertex="1" parent="1">
          <mxGeometry x="79" y="490" width="60" height="120" as="geometry" />
        </mxCell>
        <mxCell id="VruLI3Jw7RiZ8R_Fioo4-57" value="" style="rounded=0;whiteSpace=wrap;html=1;" vertex="1" parent="1">
          <mxGeometry x="469" y="100" width="240" height="260" as="geometry" />
        </mxCell>
        <mxCell id="VruLI3Jw7RiZ8R_Fioo4-58" value="" style="rounded=0;whiteSpace=wrap;html=1;" vertex="1" parent="1">
          <mxGeometry x="469" y="120" width="240" height="240" as="geometry" />
        </mxCell>
        <mxCell id="VruLI3Jw7RiZ8R_Fioo4-59" value="" style="ellipse;whiteSpace=wrap;html=1;" vertex="1" parent="1">
          <mxGeometry x="506.5" y="140" width="165" height="60" as="geometry" />
        </mxCell>
        <mxCell id="VruLI3Jw7RiZ8R_Fioo4-60" value="" style="ellipse;whiteSpace=wrap;html=1;" vertex="1" parent="1">
          <mxGeometry x="506.5" y="215" width="165" height="60" as="geometry" />
        </mxCell>
        <mxCell id="VruLI3Jw7RiZ8R_Fioo4-61" value="" style="ellipse;whiteSpace=wrap;html=1;" vertex="1" parent="1">
          <mxGeometry x="506.5" y="290" width="165" height="60" as="geometry" />
        </mxCell>
        <mxCell id="VruLI3Jw7RiZ8R_Fioo4-62" value="" style="ellipse;whiteSpace=wrap;html=1;" vertex="1" parent="1">
          <mxGeometry x="506.5" y="130" width="165" height="60" as="geometry" />
        </mxCell>
        <mxCell id="VruLI3Jw7RiZ8R_Fioo4-63" value="" style="ellipse;whiteSpace=wrap;html=1;" vertex="1" parent="1">
          <mxGeometry x="506.5" y="210" width="165" height="60" as="geometry" />
        </mxCell>
        <mxCell id="VruLI3Jw7RiZ8R_Fioo4-64" value="" style="ellipse;whiteSpace=wrap;html=1;" vertex="1" parent="1">
          <mxGeometry x="506.5" y="290" width="165" height="60" as="geometry" />
        </mxCell>
        <mxCell id="VruLI3Jw7RiZ8R_Fioo4-65" value="" style="ellipse;whiteSpace=wrap;html=1;" vertex="1" parent="1">
          <mxGeometry x="506.5" y="130" width="165" height="60" as="geometry" />
        </mxCell>
        <mxCell id="VruLI3Jw7RiZ8R_Fioo4-66" value="" style="ellipse;whiteSpace=wrap;html=1;" vertex="1" parent="1">
          <mxGeometry x="506.5" y="210" width="165" height="60" as="geometry" />
        </mxCell>
        <mxCell id="VruLI3Jw7RiZ8R_Fioo4-67" value="" style="ellipse;whiteSpace=wrap;html=1;" vertex="1" parent="1">
          <mxGeometry x="506.5" y="290" width="165" height="60" as="geometry" />
        </mxCell>
        <mxCell id="VruLI3Jw7RiZ8R_Fioo4-68" value="" style="rounded=0;whiteSpace=wrap;html=1;fillColor=default;" vertex="1" parent="1">
          <mxGeometry x="469" y="80" width="240" height="280" as="geometry" />
        </mxCell>
        <mxCell id="VruLI3Jw7RiZ8R_Fioo4-69" value="GerenciarProgramação" style="ellipse;whiteSpace=wrap;html=1;" vertex="1" parent="1">
          <mxGeometry x="506.5" y="130" width="165" height="60" as="geometry" />
        </mxCell>
        <mxCell id="VruLI3Jw7RiZ8R_Fioo4-70" value="Organizar&lt;span style=&quot;background-color: transparent; color: light-dark(rgb(0, 0, 0), rgb(255, 255, 255));&quot;&gt;Missas&lt;/span&gt;" style="ellipse;whiteSpace=wrap;html=1;" vertex="1" parent="1">
          <mxGeometry x="506.5" y="205" width="165" height="60" as="geometry" />
        </mxCell>
        <mxCell id="VruLI3Jw7RiZ8R_Fioo4-71" value="CoordenarEventosReligiosos" style="ellipse;whiteSpace=wrap;html=1;" vertex="1" parent="1">
          <mxGeometry x="506.5" y="275" width="165" height="60" as="geometry" />
        </mxCell>
        <mxCell id="VruLI3Jw7RiZ8R_Fioo4-74" value="" style="endArrow=classic;html=1;rounded=0;entryX=0;entryY=0.5;entryDx=0;entryDy=0;exitX=1;exitY=0.5;exitDx=0;exitDy=0;" edge="1" parent="1" source="VruLI3Jw7RiZ8R_Fioo4-18" target="VruLI3Jw7RiZ8R_Fioo4-70">
          <mxGeometry width="50" height="50" relative="1" as="geometry">
            <mxPoint x="389" y="240" as="sourcePoint" />
            <mxPoint x="439" y="190" as="targetPoint" />
          </mxGeometry>
        </mxCell>
        <mxCell id="VruLI3Jw7RiZ8R_Fioo4-75" value="" style="endArrow=classic;html=1;rounded=0;entryX=0;entryY=0.5;entryDx=0;entryDy=0;" edge="1" parent="1" target="VruLI3Jw7RiZ8R_Fioo4-69">
          <mxGeometry width="50" height="50" relative="1" as="geometry">
            <mxPoint x="379" y="240" as="sourcePoint" />
            <mxPoint x="429" y="190" as="targetPoint" />
          </mxGeometry>
        </mxCell>
        <mxCell id="VruLI3Jw7RiZ8R_Fioo4-76" value="" style="endArrow=classic;html=1;rounded=0;entryX=0;entryY=0.5;entryDx=0;entryDy=0;" edge="1" parent="1" target="VruLI3Jw7RiZ8R_Fioo4-71">
          <mxGeometry width="50" height="50" relative="1" as="geometry">
            <mxPoint x="379" y="240" as="sourcePoint" />
            <mxPoint x="429" y="190" as="targetPoint" />
          </mxGeometry>
        </mxCell>
        <mxCell id="VruLI3Jw7RiZ8R_Fioo4-77" value="&lt;font style=&quot;font-size: 14px;&quot;&gt;Gestão Religiosa&lt;/font&gt;" style="text;html=1;align=center;verticalAlign=middle;whiteSpace=wrap;rounded=0;" vertex="1" parent="1">
          <mxGeometry x="523.25" y="90" width="131.5" height="30" as="geometry" />
        </mxCell>
        <mxCell id="VruLI3Jw7RiZ8R_Fioo4-78" value="&lt;span style=&quot;font-size: 14px;&quot;&gt;Gestão Administrativa&lt;/span&gt;" style="text;html=1;align=center;verticalAlign=middle;whiteSpace=wrap;rounded=0;" vertex="1" parent="1">
          <mxGeometry x="514" y="410" width="150" height="30" as="geometry" />
        </mxCell>
        <mxCell id="VruLI3Jw7RiZ8R_Fioo4-81" value="" style="endArrow=classic;html=1;rounded=0;exitX=1;exitY=0.5;exitDx=0;exitDy=0;entryX=0;entryY=0.5;entryDx=0;entryDy=0;" edge="1" parent="1" source="VruLI3Jw7RiZ8R_Fioo4-45" target="VruLI3Jw7RiZ8R_Fioo4-43">
          <mxGeometry width="50" height="50" relative="1" as="geometry">
            <mxPoint x="389" y="570" as="sourcePoint" />
            <mxPoint x="439" y="520" as="targetPoint" />
          </mxGeometry>
        </mxCell>
        <mxCell id="VruLI3Jw7RiZ8R_Fioo4-82" value="" style="endArrow=classic;html=1;rounded=0;exitX=1;exitY=0.5;exitDx=0;exitDy=0;entryX=0;entryY=0.5;entryDx=0;entryDy=0;" edge="1" parent="1" source="VruLI3Jw7RiZ8R_Fioo4-45" target="VruLI3Jw7RiZ8R_Fioo4-42">
          <mxGeometry width="50" height="50" relative="1" as="geometry">
            <mxPoint x="379" y="540" as="sourcePoint" />
            <mxPoint x="429" y="490" as="targetPoint" />
          </mxGeometry>
        </mxCell>
        <mxCell id="VruLI3Jw7RiZ8R_Fioo4-83" value="" style="endArrow=classic;html=1;rounded=0;entryX=0;entryY=0.5;entryDx=0;entryDy=0;exitX=1;exitY=0.5;exitDx=0;exitDy=0;" edge="1" parent="1" source="VruLI3Jw7RiZ8R_Fioo4-45" target="VruLI3Jw7RiZ8R_Fioo4-44">
          <mxGeometry width="50" height="50" relative="1" as="geometry">
            <mxPoint x="359" y="650" as="sourcePoint" />
            <mxPoint x="409" y="600" as="targetPoint" />
          </mxGeometry>
        </mxCell>
        <mxCell id="VruLI3Jw7RiZ8R_Fioo4-85" value="" style="endArrow=classic;html=1;rounded=0;entryX=0;entryY=0.5;entryDx=0;entryDy=0;exitX=0.5;exitY=0.5;exitDx=0;exitDy=0;exitPerimeter=0;" edge="1" parent="1" source="VruLI3Jw7RiZ8R_Fioo4-52" target="VruLI3Jw7RiZ8R_Fioo4-18">
          <mxGeometry width="50" height="50" relative="1" as="geometry">
            <mxPoint x="69" y="420" as="sourcePoint" />
            <mxPoint x="119" y="370" as="targetPoint" />
          </mxGeometry>
        </mxCell>
      </root>
    </mxGraphModel>
  </diagram>
</mxfile>
